<mxfile host="Electron" modified="2023-12-11T18:05:19.372Z" agent="Mozilla/5.0 (Windows NT 10.0; Win64; x64) AppleWebKit/537.36 (KHTML, like Gecko) draw.io/22.1.2 Chrome/114.0.5735.289 Electron/25.9.4 Safari/537.36" etag="KhK9Q15WWMmtVfomT88a" version="22.1.2" type="device">
  <diagram name="Page-1" id="5d7acffa-a066-3a61-03fe-96351882024d">
    <mxGraphModel dx="1098" dy="820" grid="1" gridSize="10" guides="1" tooltips="1" connect="1" arrows="1" fold="1" page="1" pageScale="1" pageWidth="1100" pageHeight="850" background="#ffffff" math="0" shadow="0">
      <root>
        <mxCell id="0" />
        <mxCell id="1" parent="0" />
        <mxCell id="64M4_T7nDbX5WRdzRO7s-7" style="edgeStyle=orthogonalEdgeStyle;rounded=0;orthogonalLoop=1;jettySize=auto;html=1;entryX=0;entryY=0.5;entryDx=0;entryDy=0;" edge="1" parent="1" source="64M4_T7nDbX5WRdzRO7s-1" target="64M4_T7nDbX5WRdzRO7s-6">
          <mxGeometry relative="1" as="geometry" />
        </mxCell>
        <mxCell id="64M4_T7nDbX5WRdzRO7s-11" value="Чек" style="edgeLabel;html=1;align=center;verticalAlign=middle;resizable=0;points=[];" vertex="1" connectable="0" parent="64M4_T7nDbX5WRdzRO7s-7">
          <mxGeometry x="-0.4857" relative="1" as="geometry">
            <mxPoint as="offset" />
          </mxGeometry>
        </mxCell>
        <mxCell id="64M4_T7nDbX5WRdzRO7s-1" value="Организовать общественное питание в блинной" style="ellipse;whiteSpace=wrap;html=1;aspect=fixed;" vertex="1" parent="1">
          <mxGeometry x="440" y="210" width="110" height="110" as="geometry" />
        </mxCell>
        <mxCell id="64M4_T7nDbX5WRdzRO7s-3" style="edgeStyle=orthogonalEdgeStyle;rounded=0;orthogonalLoop=1;jettySize=auto;html=1;entryX=0.5;entryY=0;entryDx=0;entryDy=0;" edge="1" parent="1" source="64M4_T7nDbX5WRdzRO7s-2" target="64M4_T7nDbX5WRdzRO7s-1">
          <mxGeometry relative="1" as="geometry" />
        </mxCell>
        <mxCell id="64M4_T7nDbX5WRdzRO7s-9" value="Text" style="edgeLabel;html=1;align=center;verticalAlign=middle;resizable=0;points=[];" vertex="1" connectable="0" parent="64M4_T7nDbX5WRdzRO7s-3">
          <mxGeometry x="0.1667" y="1" relative="1" as="geometry">
            <mxPoint as="offset" />
          </mxGeometry>
        </mxCell>
        <mxCell id="64M4_T7nDbX5WRdzRO7s-10" value="Предпочтения клиента" style="edgeLabel;html=1;align=center;verticalAlign=middle;resizable=0;points=[];" vertex="1" connectable="0" parent="64M4_T7nDbX5WRdzRO7s-3">
          <mxGeometry x="0.1667" y="5" relative="1" as="geometry">
            <mxPoint as="offset" />
          </mxGeometry>
        </mxCell>
        <mxCell id="64M4_T7nDbX5WRdzRO7s-2" value="Клиент" style="rounded=0;whiteSpace=wrap;html=1;" vertex="1" parent="1">
          <mxGeometry x="435" y="90" width="120" height="60" as="geometry" />
        </mxCell>
        <mxCell id="64M4_T7nDbX5WRdzRO7s-5" style="edgeStyle=orthogonalEdgeStyle;rounded=0;orthogonalLoop=1;jettySize=auto;html=1;entryX=0;entryY=0.5;entryDx=0;entryDy=0;" edge="1" parent="1" source="64M4_T7nDbX5WRdzRO7s-4" target="64M4_T7nDbX5WRdzRO7s-1">
          <mxGeometry relative="1" as="geometry" />
        </mxCell>
        <mxCell id="64M4_T7nDbX5WRdzRO7s-8" value="меню" style="edgeLabel;html=1;align=center;verticalAlign=middle;resizable=0;points=[];" vertex="1" connectable="0" parent="64M4_T7nDbX5WRdzRO7s-5">
          <mxGeometry x="-0.3111" y="-1" relative="1" as="geometry">
            <mxPoint as="offset" />
          </mxGeometry>
        </mxCell>
        <mxCell id="64M4_T7nDbX5WRdzRO7s-4" value="Услуги компании" style="shape=partialRectangle;whiteSpace=wrap;html=1;left=0;right=0;fillColor=none;" vertex="1" parent="1">
          <mxGeometry x="230" y="247.5" width="120" height="35" as="geometry" />
        </mxCell>
        <mxCell id="64M4_T7nDbX5WRdzRO7s-6" value="Финансовый архив" style="shape=partialRectangle;whiteSpace=wrap;html=1;left=0;right=0;fillColor=none;" vertex="1" parent="1">
          <mxGeometry x="620" y="247.5" width="120" height="35" as="geometry" />
        </mxCell>
        <mxCell id="64M4_T7nDbX5WRdzRO7s-16" style="edgeStyle=orthogonalEdgeStyle;rounded=0;orthogonalLoop=1;jettySize=auto;html=1;entryX=0.5;entryY=0;entryDx=0;entryDy=0;" edge="1" parent="1" source="64M4_T7nDbX5WRdzRO7s-12" target="64M4_T7nDbX5WRdzRO7s-13">
          <mxGeometry relative="1" as="geometry" />
        </mxCell>
        <mxCell id="64M4_T7nDbX5WRdzRO7s-18" value="Заказ клиента" style="edgeLabel;html=1;align=center;verticalAlign=middle;resizable=0;points=[];" vertex="1" connectable="0" parent="64M4_T7nDbX5WRdzRO7s-16">
          <mxGeometry x="-0.12" y="-3" relative="1" as="geometry">
            <mxPoint y="-13" as="offset" />
          </mxGeometry>
        </mxCell>
        <mxCell id="64M4_T7nDbX5WRdzRO7s-12" value="Информировать об услугах" style="ellipse;whiteSpace=wrap;html=1;aspect=fixed;" vertex="1" parent="1">
          <mxGeometry x="230" y="530" width="80" height="80" as="geometry" />
        </mxCell>
        <mxCell id="64M4_T7nDbX5WRdzRO7s-13" value="приготовить блины" style="ellipse;whiteSpace=wrap;html=1;aspect=fixed;" vertex="1" parent="1">
          <mxGeometry x="390" y="600" width="80" height="80" as="geometry" />
        </mxCell>
        <mxCell id="64M4_T7nDbX5WRdzRO7s-23" style="edgeStyle=orthogonalEdgeStyle;rounded=0;orthogonalLoop=1;jettySize=auto;html=1;" edge="1" parent="1" source="64M4_T7nDbX5WRdzRO7s-14">
          <mxGeometry relative="1" as="geometry">
            <mxPoint x="710" y="700" as="targetPoint" />
          </mxGeometry>
        </mxCell>
        <mxCell id="64M4_T7nDbX5WRdzRO7s-24" value="Чек" style="edgeLabel;html=1;align=center;verticalAlign=middle;resizable=0;points=[];" vertex="1" connectable="0" parent="64M4_T7nDbX5WRdzRO7s-23">
          <mxGeometry x="0.1396" y="-2" relative="1" as="geometry">
            <mxPoint y="-12" as="offset" />
          </mxGeometry>
        </mxCell>
        <mxCell id="64M4_T7nDbX5WRdzRO7s-14" value="обслужить посетителей" style="ellipse;whiteSpace=wrap;html=1;aspect=fixed;" vertex="1" parent="1">
          <mxGeometry x="570" y="660" width="80" height="80" as="geometry" />
        </mxCell>
        <mxCell id="64M4_T7nDbX5WRdzRO7s-21" style="edgeStyle=orthogonalEdgeStyle;rounded=0;orthogonalLoop=1;jettySize=auto;html=1;entryX=0.5;entryY=0;entryDx=0;entryDy=0;" edge="1" parent="1" source="64M4_T7nDbX5WRdzRO7s-15" target="64M4_T7nDbX5WRdzRO7s-14">
          <mxGeometry relative="1" as="geometry" />
        </mxCell>
        <mxCell id="64M4_T7nDbX5WRdzRO7s-22" value="Счет за блины" style="edgeLabel;html=1;align=center;verticalAlign=middle;resizable=0;points=[];" vertex="1" connectable="0" parent="64M4_T7nDbX5WRdzRO7s-21">
          <mxGeometry x="0.2364" relative="1" as="geometry">
            <mxPoint x="40" y="-9" as="offset" />
          </mxGeometry>
        </mxCell>
        <mxCell id="64M4_T7nDbX5WRdzRO7s-15" value="Официант" style="rounded=0;whiteSpace=wrap;html=1;" vertex="1" parent="1">
          <mxGeometry x="545" y="550" width="120" height="60" as="geometry" />
        </mxCell>
        <mxCell id="64M4_T7nDbX5WRdzRO7s-17" value="" style="endArrow=classic;html=1;rounded=0;entryX=-0.017;entryY=0.367;entryDx=0;entryDy=0;entryPerimeter=0;" edge="1" parent="1" target="64M4_T7nDbX5WRdzRO7s-15">
          <mxGeometry width="50" height="50" relative="1" as="geometry">
            <mxPoint x="430" y="570" as="sourcePoint" />
            <mxPoint x="560" y="500" as="targetPoint" />
          </mxGeometry>
        </mxCell>
        <mxCell id="64M4_T7nDbX5WRdzRO7s-19" value="" style="endArrow=classic;html=1;rounded=0;entryX=0;entryY=0.75;entryDx=0;entryDy=0;" edge="1" parent="1" target="64M4_T7nDbX5WRdzRO7s-15">
          <mxGeometry width="50" height="50" relative="1" as="geometry">
            <mxPoint x="470" y="640" as="sourcePoint" />
            <mxPoint x="520" y="590" as="targetPoint" />
            <Array as="points">
              <mxPoint x="500" y="640" />
              <mxPoint x="500" y="595" />
            </Array>
          </mxGeometry>
        </mxCell>
        <mxCell id="64M4_T7nDbX5WRdzRO7s-20" value="Статус &lt;br&gt;приготовления" style="edgeLabel;html=1;align=center;verticalAlign=middle;resizable=0;points=[];" vertex="1" connectable="0" parent="64M4_T7nDbX5WRdzRO7s-19">
          <mxGeometry x="-0.1667" relative="1" as="geometry">
            <mxPoint x="10" y="40" as="offset" />
          </mxGeometry>
        </mxCell>
        <mxCell id="64M4_T7nDbX5WRdzRO7s-25" value="" style="endArrow=classic;html=1;rounded=0;entryX=0.5;entryY=0;entryDx=0;entryDy=0;" edge="1" parent="1" target="64M4_T7nDbX5WRdzRO7s-12">
          <mxGeometry width="50" height="50" relative="1" as="geometry">
            <mxPoint x="270" y="490" as="sourcePoint" />
            <mxPoint x="240" y="470" as="targetPoint" />
          </mxGeometry>
        </mxCell>
        <mxCell id="64M4_T7nDbX5WRdzRO7s-26" value="Предпочтения клиента" style="edgeLabel;html=1;align=center;verticalAlign=middle;resizable=0;points=[];" vertex="1" connectable="0" parent="64M4_T7nDbX5WRdzRO7s-25">
          <mxGeometry x="-0.25" relative="1" as="geometry">
            <mxPoint x="60" as="offset" />
          </mxGeometry>
        </mxCell>
        <mxCell id="64M4_T7nDbX5WRdzRO7s-27" value="" style="endArrow=classic;html=1;rounded=0;" edge="1" parent="1">
          <mxGeometry width="50" height="50" relative="1" as="geometry">
            <mxPoint x="170" y="569.5" as="sourcePoint" />
            <mxPoint x="230" y="569.5" as="targetPoint" />
          </mxGeometry>
        </mxCell>
        <mxCell id="64M4_T7nDbX5WRdzRO7s-28" value="Меню" style="edgeLabel;html=1;align=center;verticalAlign=middle;resizable=0;points=[];" vertex="1" connectable="0" parent="64M4_T7nDbX5WRdzRO7s-27">
          <mxGeometry x="-0.4" y="3" relative="1" as="geometry">
            <mxPoint y="-6" as="offset" />
          </mxGeometry>
        </mxCell>
        <mxCell id="64M4_T7nDbX5WRdzRO7s-37" style="edgeStyle=orthogonalEdgeStyle;rounded=0;orthogonalLoop=1;jettySize=auto;html=1;entryX=0.5;entryY=0;entryDx=0;entryDy=0;" edge="1" parent="1" source="64M4_T7nDbX5WRdzRO7s-29" target="64M4_T7nDbX5WRdzRO7s-31">
          <mxGeometry relative="1" as="geometry" />
        </mxCell>
        <mxCell id="64M4_T7nDbX5WRdzRO7s-39" value="Выбранные блюда" style="edgeLabel;html=1;align=center;verticalAlign=middle;resizable=0;points=[];" vertex="1" connectable="0" parent="64M4_T7nDbX5WRdzRO7s-37">
          <mxGeometry x="-0.5771" relative="1" as="geometry">
            <mxPoint y="-10" as="offset" />
          </mxGeometry>
        </mxCell>
        <mxCell id="64M4_T7nDbX5WRdzRO7s-29" value="Консультация" style="ellipse;whiteSpace=wrap;html=1;aspect=fixed;" vertex="1" parent="1">
          <mxGeometry x="260" y="970" width="80" height="80" as="geometry" />
        </mxCell>
        <mxCell id="64M4_T7nDbX5WRdzRO7s-30" value="Записать столик" style="ellipse;whiteSpace=wrap;html=1;aspect=fixed;" vertex="1" parent="1">
          <mxGeometry x="400" y="1040" width="80" height="80" as="geometry" />
        </mxCell>
        <mxCell id="64M4_T7nDbX5WRdzRO7s-31" value="Оформить заказ" style="ellipse;whiteSpace=wrap;html=1;aspect=fixed;" vertex="1" parent="1">
          <mxGeometry x="560" y="1100" width="80" height="80" as="geometry" />
        </mxCell>
        <mxCell id="64M4_T7nDbX5WRdzRO7s-32" value="" style="endArrow=classic;html=1;rounded=0;" edge="1" parent="1">
          <mxGeometry width="50" height="50" relative="1" as="geometry">
            <mxPoint x="599.5" y="1180" as="sourcePoint" />
            <mxPoint x="599.5" y="1230" as="targetPoint" />
          </mxGeometry>
        </mxCell>
        <mxCell id="64M4_T7nDbX5WRdzRO7s-41" value="Заказ клиента" style="edgeLabel;html=1;align=center;verticalAlign=middle;resizable=0;points=[];" vertex="1" connectable="0" parent="64M4_T7nDbX5WRdzRO7s-32">
          <mxGeometry x="-0.12" relative="1" as="geometry">
            <mxPoint x="41" y="-2" as="offset" />
          </mxGeometry>
        </mxCell>
        <mxCell id="64M4_T7nDbX5WRdzRO7s-33" value="" style="endArrow=classic;html=1;rounded=0;" edge="1" parent="1">
          <mxGeometry width="50" height="50" relative="1" as="geometry">
            <mxPoint x="300" y="930" as="sourcePoint" />
            <mxPoint x="299.5" y="970" as="targetPoint" />
          </mxGeometry>
        </mxCell>
        <mxCell id="64M4_T7nDbX5WRdzRO7s-35" value="Предпочтения клиента" style="edgeLabel;html=1;align=center;verticalAlign=middle;resizable=0;points=[];" vertex="1" connectable="0" parent="64M4_T7nDbX5WRdzRO7s-33">
          <mxGeometry x="-0.3001" relative="1" as="geometry">
            <mxPoint x="60" as="offset" />
          </mxGeometry>
        </mxCell>
        <mxCell id="64M4_T7nDbX5WRdzRO7s-34" value="" style="endArrow=classic;html=1;rounded=0;" edge="1" parent="1">
          <mxGeometry width="50" height="50" relative="1" as="geometry">
            <mxPoint x="200" y="1010" as="sourcePoint" />
            <mxPoint x="260" y="1010" as="targetPoint" />
          </mxGeometry>
        </mxCell>
        <mxCell id="64M4_T7nDbX5WRdzRO7s-36" value="Меню" style="edgeLabel;html=1;align=center;verticalAlign=middle;resizable=0;points=[];" vertex="1" connectable="0" parent="64M4_T7nDbX5WRdzRO7s-34">
          <mxGeometry x="-0.6" y="-1" relative="1" as="geometry">
            <mxPoint x="18" y="-11" as="offset" />
          </mxGeometry>
        </mxCell>
        <mxCell id="64M4_T7nDbX5WRdzRO7s-38" style="edgeStyle=orthogonalEdgeStyle;rounded=0;orthogonalLoop=1;jettySize=auto;html=1;entryX=0.275;entryY=0.075;entryDx=0;entryDy=0;entryPerimeter=0;" edge="1" parent="1" source="64M4_T7nDbX5WRdzRO7s-30" target="64M4_T7nDbX5WRdzRO7s-31">
          <mxGeometry relative="1" as="geometry">
            <Array as="points">
              <mxPoint x="582" y="1080" />
            </Array>
          </mxGeometry>
        </mxCell>
        <mxCell id="64M4_T7nDbX5WRdzRO7s-40" value="Номер столика клиента" style="edgeLabel;html=1;align=center;verticalAlign=middle;resizable=0;points=[];" vertex="1" connectable="0" parent="64M4_T7nDbX5WRdzRO7s-38">
          <mxGeometry x="-0.3906" y="-2" relative="1" as="geometry">
            <mxPoint x="21" y="-12" as="offset" />
          </mxGeometry>
        </mxCell>
      </root>
    </mxGraphModel>
  </diagram>
</mxfile>
